<?xml version="1.0" encoding="UTF-8"?>
<svg id="Layer_1" data-name="Layer 1" xmlns="http://www.w3.org/2000/svg" xmlns:xlink="http://www.w3.org/1999/xlink" viewBox="0 0 500 500">
  <defs>
    <style>
      .cls-1 {
        fill: #7abac1;
      }

      .cls-2 {
        fill: url(#linear-gradient);
      }

      .cls-3 {
        fill: #71ab44;
      }

      .cls-4 {
        fill: #e470aa;
      }

      .cls-5 {
        fill: #deb14a;
      }
    </style>
    <linearGradient id="linear-gradient" x1="108.26" y1="366.83" x2="431.45" y2="43.64" gradientUnits="userSpaceOnUse">
      <stop offset="0" stop-color="#4a5f80"/>
      <stop offset=".29" stop-color="#3e577a"/>
      <stop offset="1" stop-color="#274870"/>
    </linearGradient>
  </defs>
  <polygon class="cls-4" points="116.55 334.45 179.55 296.63 223.13 322.32 224.06 270.84 329.17 334.11 222.53 397.04 116.55 334.45"/>
  <polygon class="cls-1" points="120.74 192.22 175.38 159.61 222.83 187.62 329.19 129.65 400.51 172.2 243.12 265.41 120.74 192.22"/>
  <path class="cls-2" d="M356.24,137.44l50.76-29.26V19.18l-184.12,109.13L109.12,61.13v8.09l113.59,67.8.11,50.6-113.71-67.15v8.09l.07.04v56.8l-.22-.13v8.09l114.02,67.92.14,61.03-110.22-65.09-3.71-2.28v83.26l113.05,67.47v75.14l184.75-107.88v-196.88l.03-8.16-50.79-30.46ZM331.96,327.19l-49.55-29.71,49.96-28.37-.41,58.09ZM162.6,160.27l-47.56,28.52v-56.72l47.56,28.2ZM120.74,192.22l47.6-28.55,54.5,32.32.13,56.6-102.23-60.37ZM275.04,301.66l54.13,32.45-106.64,62.93-105.98-62.59,56.16-33.43,50.44,30.11,51.89-29.47ZM115.04,266.61l51.72,30.87-51.72,31.01v-61.88ZM292.37,235.39v-61.13l56.68-32.67,51.46,30.62-108.14,63.19Z"/>
  <polygon class="cls-5" points="162.6 160.27 115.04 188.79 115.04 132.07 162.6 160.27"/>
  <polygon class="cls-3" points="115.04 266.61 166.76 297.48 115.04 328.49 115.04 266.61"/>
  <polygon class="cls-3" points="331.96 327.19 282.42 297.48 332.38 269.1 331.96 327.19"/>
</svg>